STARTFONT 2.1
COMMENT 
COMMENT 10x20rkm.bdf, a part of Kappa 20dot Fonts Version 0.396 (2003/10/06).
COMMENT 
COMMENT Designed by KANOU Hiroki (kanou@khdd.net), referring to the
COMMENT glyph design by NAGAO Sadakazu (snagao@tkb.att.ne.jp) except katakanas.
COMMENT For more information, see http://khdd.net/20dot.fonts/
COMMENT 
COMMENT THIS FONT IS PUBLIC DOMAIN: YOU CAN USE, COPY, MODIFY, EVEN COPYRIGHT
COMMENT AS YOURS AND SELL THIS FONT, BUT YOU CAN'T PROHIBIT ANYONE FROM FREE
COMMENT CIRCULATION OF THIS FONT AND ITS DESCENDANTS INDEPENDENT OF YOUR
COMMENT VARIATIONS AND/OR DERIVATIONS. SEE `README' (IN JAPANESE) FOR DETAILS.
COMMENT 
FONT -Kappa-Fixed-Medium-R-Normal--20-190-75-75-C-100-JISX0201.1976-0
SIZE 20 75 75
FONTBOUNDINGBOX 10 20 0 -3
STARTPROPERTIES 19
FONT_ASCENT 17
FONT_DESCENT 3
COPYRIGHT "public domain"
FONTNAME_REGISTRY ""
FOUNDRY "Kappa"
FAMILY_NAME "Fixed"
WEIGHT_NAME "Medium"
SLANT "R"
SETWIDTH_NAME "Normal"
ADD_STYLE_NAME ""
PIXEL_SIZE 20
POINT_SIZE 190
RESOLUTION_X 75
RESOLUTION_Y 75
SPACING "C"
AVERAGE_WIDTH 100
CHARSET_REGISTRY "JISX0201.1976"
CHARSET_ENCODING "0"
DEFAULT_CHAR 32
ENDPROPERTIES
CHARS 159
STARTCHAR space
ENCODING 32
SWIDTH 505 0
DWIDTH 10 0
BBX 10 20 0 -3
BITMAP
0000
0000
0000
0000
0000
0000
0000
0000
0000
0000
0000
0000
0000
0000
0000
0000
0000
0000
0000
0000
ENDCHAR
STARTCHAR !
ENCODING 33
SWIDTH 505 0
DWIDTH 10 0
BBX 10 20 0 -3
BITMAP
0000
0000
0800
1c00
1c00
1c00
0800
0800
0800
0800
0800
0800
0000
0000
0800
1c00
0800
0000
0000
0000
ENDCHAR
STARTCHAR "
ENCODING 34
SWIDTH 505 0
DWIDTH 10 0
BBX 10 20 0 -3
BITMAP
0000
0000
3600
3600
1200
2400
4800
0000
0000
0000
0000
0000
0000
0000
0000
0000
0000
0000
0000
0000
ENDCHAR
STARTCHAR #
ENCODING 35
SWIDTH 505 0
DWIDTH 10 0
BBX 10 20 0 -3
BITMAP
0000
0000
1100
1100
1100
1100
1100
7f80
2200
2200
2200
2200
ff00
4400
4400
4400
4400
4400
0000
0000
ENDCHAR
STARTCHAR $
ENCODING 36
SWIDTH 505 0
DWIDTH 10 0
BBX 10 20 0 -3
BITMAP
0000
0800
0800
3e00
4900
8880
8980
8800
6800
1c00
0b00
0880
c880
8880
4900
3e00
0800
0800
0000
0000
ENDCHAR
STARTCHAR %
ENCODING 37
SWIDTH 505 0
DWIDTH 10 0
BBX 10 20 0 -3
BITMAP
0000
0000
3080
4880
4900
4900
4a00
4a00
3400
0400
0800
0b00
1480
1480
2480
2480
4480
4300
0000
0000
ENDCHAR
STARTCHAR &
ENCODING 38
SWIDTH 505 0
DWIDTH 10 0
BBX 10 20 0 -3
BITMAP
0000
0000
0000
3c00
4200
4200
4400
2400
2800
11c0
2880
4880
8500
8500
8200
4640
3980
0000
0000
0000
ENDCHAR
STARTCHAR '
ENCODING 39
SWIDTH 505 0
DWIDTH 10 0
BBX 10 20 0 -3
BITMAP
0000
0000
1800
1800
0800
0800
1000
2000
0000
0000
0000
0000
0000
0000
0000
0000
0000
0000
0000
0000
ENDCHAR
STARTCHAR (
ENCODING 40
SWIDTH 505 0
DWIDTH 10 0
BBX 10 20 0 -3
BITMAP
0000
0100
0200
0400
0400
0800
0800
1800
1000
1000
1000
1000
1800
0800
0800
0400
0400
0200
0100
0000
ENDCHAR
STARTCHAR )
ENCODING 41
SWIDTH 505 0
DWIDTH 10 0
BBX 10 20 0 -3
BITMAP
0000
4000
2000
1000
1000
0800
0800
0c00
0400
0400
0400
0400
0c00
0800
0800
1000
1000
2000
4000
0000
ENDCHAR
STARTCHAR *
ENCODING 42
SWIDTH 505 0
DWIDTH 10 0
BBX 10 20 0 -3
BITMAP
0000
0000
0000
0000
0000
0800
4900
6b00
1c00
0800
1c00
6b00
4900
0800
0000
0000
0000
0000
0000
0000
ENDCHAR
STARTCHAR +
ENCODING 43
SWIDTH 505 0
DWIDTH 10 0
BBX 10 20 0 -3
BITMAP
0000
0000
0000
0000
0000
0800
0800
0800
0800
ff80
0800
0800
0800
0800
0000
0000
0000
0000
0000
0000
ENDCHAR
STARTCHAR ,
ENCODING 44
SWIDTH 505 0
DWIDTH 10 0
BBX 10 20 0 -3
BITMAP
0000
0000
0000
0000
0000
0000
0000
0000
0000
0000
0000
0000
0000
0000
1800
1800
0800
0800
1000
2000
ENDCHAR
STARTCHAR -
ENCODING 45
SWIDTH 505 0
DWIDTH 10 0
BBX 10 20 0 -3
BITMAP
0000
0000
0000
0000
0000
0000
0000
0000
0000
7f80
0000
0000
0000
0000
0000
0000
0000
0000
0000
0000
ENDCHAR
STARTCHAR .
ENCODING 46
SWIDTH 505 0
DWIDTH 10 0
BBX 10 20 0 -3
BITMAP
0000
0000
0000
0000
0000
0000
0000
0000
0000
0000
0000
0000
0000
0000
1000
3800
1000
0000
0000
0000
ENDCHAR
STARTCHAR /
ENCODING 47
SWIDTH 505 0
DWIDTH 10 0
BBX 10 20 0 -3
BITMAP
0000
0080
0080
0100
0100
0200
0200
0400
0400
0800
0800
0800
1000
1000
2000
2000
4000
4000
8000
8000
ENDCHAR
STARTCHAR 0
ENCODING 48
SWIDTH 505 0
DWIDTH 10 0
BBX 10 20 0 -3
BITMAP
0000
0000
0000
0c00
1200
2100
2100
4080
4080
4080
4080
4080
4080
2100
2100
1200
0c00
0000
0000
0000
ENDCHAR
STARTCHAR 1
ENCODING 49
SWIDTH 505 0
DWIDTH 10 0
BBX 10 20 0 -3
BITMAP
0000
0000
0000
0400
0c00
3400
0400
0400
0400
0400
0400
0400
0400
0400
0400
0400
1f00
0000
0000
0000
ENDCHAR
STARTCHAR 2
ENCODING 50
SWIDTH 505 0
DWIDTH 10 0
BBX 10 20 0 -3
BITMAP
0000
0000
0000
1e00
2100
4080
4080
0080
0100
0100
0200
0400
0800
1080
2080
4100
7f00
0000
0000
0000
ENDCHAR
STARTCHAR 3
ENCODING 51
SWIDTH 505 0
DWIDTH 10 0
BBX 10 20 0 -3
BITMAP
0000
0000
0000
1e00
2100
4080
4080
0080
0100
0e00
0100
0080
0080
4080
4080
2100
1e00
0000
0000
0000
ENDCHAR
STARTCHAR 4
ENCODING 52
SWIDTH 505 0
DWIDTH 10 0
BBX 10 20 0 -3
BITMAP
0000
0000
0000
0600
0600
0a00
0a00
1200
1200
2200
2200
4200
7f80
0200
0200
0200
0f80
0000
0000
0000
ENDCHAR
STARTCHAR 5
ENCODING 53
SWIDTH 505 0
DWIDTH 10 0
BBX 10 20 0 -3
BITMAP
0000
0000
0000
3f80
2000
2000
2000
2000
2e00
3100
0080
0080
0080
4080
4080
2100
1e00
0000
0000
0000
ENDCHAR
STARTCHAR 6
ENCODING 54
SWIDTH 505 0
DWIDTH 10 0
BBX 10 20 0 -3
BITMAP
0000
0000
0000
1e00
2100
4080
4000
4000
4e00
5100
6080
4080
4080
4080
4080
2100
1e00
0000
0000
0000
ENDCHAR
STARTCHAR 7
ENCODING 55
SWIDTH 505 0
DWIDTH 10 0
BBX 10 20 0 -3
BITMAP
0000
0000
0000
3f80
2080
4100
4200
0200
0400
0400
0400
0400
0800
0800
0800
0800
0800
0000
0000
0000
ENDCHAR
STARTCHAR 8
ENCODING 56
SWIDTH 505 0
DWIDTH 10 0
BBX 10 20 0 -3
BITMAP
0000
0000
0000
1e00
2100
4080
4080
4080
2100
1e00
2100
4080
4080
4080
4080
2100
1e00
0000
0000
0000
ENDCHAR
STARTCHAR 9
ENCODING 57
SWIDTH 505 0
DWIDTH 10 0
BBX 10 20 0 -3
BITMAP
0000
0000
0000
1e00
2100
4080
4080
4080
4080
4080
2180
1e80
0080
0080
4080
2100
1e00
0000
0000
0000
ENDCHAR
STARTCHAR :
ENCODING 58
SWIDTH 505 0
DWIDTH 10 0
BBX 10 20 0 -3
BITMAP
0000
0000
0000
0000
0000
0000
0800
1c00
0800
0000
0000
0000
0000
0000
0800
1c00
0800
0000
0000
0000
ENDCHAR
STARTCHAR ;
ENCODING 59
SWIDTH 505 0
DWIDTH 10 0
BBX 10 20 0 -3
BITMAP
0000
0000
0000
0000
0000
0000
0800
1c00
0800
0000
0000
0000
0000
0000
0c00
0c00
0400
0400
0800
1000
ENDCHAR
STARTCHAR <
ENCODING 60
SWIDTH 505 0
DWIDTH 10 0
BBX 10 20 0 -3
BITMAP
0000
0000
0000
0000
0100
0200
0400
0800
1000
2000
4000
2000
1000
0800
0400
0200
0100
0000
0000
0000
ENDCHAR
STARTCHAR =
ENCODING 61
SWIDTH 505 0
DWIDTH 10 0
BBX 10 20 0 -3
BITMAP
0000
0000
0000
0000
0000
0000
0000
0000
7f80
0000
0000
0000
7f80
0000
0000
0000
0000
0000
0000
0000
ENDCHAR
STARTCHAR >
ENCODING 62
SWIDTH 505 0
DWIDTH 10 0
BBX 10 20 0 -3
BITMAP
0000
0000
0000
0000
4000
2000
1000
0800
0400
0200
0100
0200
0400
0800
1000
2000
4000
0000
0000
0000
ENDCHAR
STARTCHAR ?
ENCODING 63
SWIDTH 505 0
DWIDTH 10 0
BBX 10 20 0 -3
BITMAP
0000
0000
0000
3e00
4100
8080
8080
4080
0100
0200
0c00
0800
0800
0000
0800
1c00
0800
0000
0000
0000
ENDCHAR
STARTCHAR @
ENCODING 64
SWIDTH 505 0
DWIDTH 10 0
BBX 10 20 0 -3
BITMAP
0000
0000
1e00
2100
4100
4080
8c80
9480
a480
a480
a480
a480
a480
9b00
8000
4080
2100
1e00
0000
0000
ENDCHAR
STARTCHAR A
ENCODING 65
SWIDTH 505 0
DWIDTH 10 0
BBX 10 20 0 -3
BITMAP
0000
0000
0000
0c00
0c00
1400
1600
1200
1200
2300
2100
2100
3f00
4180
4080
4080
e3c0
0000
0000
0000
ENDCHAR
STARTCHAR B
ENCODING 66
SWIDTH 505 0
DWIDTH 10 0
BBX 10 20 0 -3
BITMAP
0000
0000
0000
fe00
4100
4080
4080
4080
4100
7e00
4100
4080
4080
4080
4080
4100
fe00
0000
0000
0000
ENDCHAR
STARTCHAR C
ENCODING 67
SWIDTH 505 0
DWIDTH 10 0
BBX 10 20 0 -3
BITMAP
0000
0000
0000
1c80
2280
4180
4080
8080
8000
8000
8000
8000
8000
4000
4080
2100
1e00
0000
0000
0000
ENDCHAR
STARTCHAR D
ENCODING 68
SWIDTH 505 0
DWIDTH 10 0
BBX 10 20 0 -3
BITMAP
0000
0000
0000
fc00
4200
4100
4100
4080
4080
4080
4080
4080
4080
4100
4100
4200
fc00
0000
0000
0000
ENDCHAR
STARTCHAR E
ENCODING 69
SWIDTH 505 0
DWIDTH 10 0
BBX 10 20 0 -3
BITMAP
0000
0000
0000
ff80
4080
4080
4080
4200
4200
7e00
4200
4200
4000
4080
4080
4080
ff80
0000
0000
0000
ENDCHAR
STARTCHAR F
ENCODING 70
SWIDTH 505 0
DWIDTH 10 0
BBX 10 20 0 -3
BITMAP
0000
0000
0000
ff80
4080
4080
4080
4400
4400
7c00
4400
4400
4000
4000
4000
4000
f000
0000
0000
0000
ENDCHAR
STARTCHAR G
ENCODING 71
SWIDTH 505 0
DWIDTH 10 0
BBX 10 20 0 -3
BITMAP
0000
0000
0000
1c80
2280
4180
4080
8080
8000
8000
8780
8080
8080
4080
4180
2280
1c80
0000
0000
0000
ENDCHAR
STARTCHAR H
ENCODING 72
SWIDTH 505 0
DWIDTH 10 0
BBX 10 20 0 -3
BITMAP
0000
0000
0000
f3c0
4080
4080
4080
4080
4080
7f80
4080
4080
4080
4080
4080
4080
f3c0
0000
0000
0000
ENDCHAR
STARTCHAR I
ENCODING 73
SWIDTH 505 0
DWIDTH 10 0
BBX 10 20 0 -3
BITMAP
0000
0000
0000
3e00
0800
0800
0800
0800
0800
0800
0800
0800
0800
0800
0800
0800
3e00
0000
0000
0000
ENDCHAR
STARTCHAR J
ENCODING 74
SWIDTH 505 0
DWIDTH 10 0
BBX 10 20 0 -3
BITMAP
0000
0000
0000
07c0
0100
0100
0100
0100
0100
0100
0100
0100
c100
8100
8100
4200
3c00
0000
0000
0000
ENDCHAR
STARTCHAR K
ENCODING 75
SWIDTH 505 0
DWIDTH 10 0
BBX 10 20 0 -3
BITMAP
0000
0000
0000
f3c0
4100
4200
4400
4800
5000
7000
5000
4800
4400
4200
4100
4080
f3c0
0000
0000
0000
ENDCHAR
STARTCHAR L
ENCODING 76
SWIDTH 505 0
DWIDTH 10 0
BBX 10 20 0 -3
BITMAP
0000
0000
0000
f800
2000
2000
2000
2000
2000
2000
2000
2000
2000
2080
2080
2080
7f80
0000
0000
0000
ENDCHAR
STARTCHAR M
ENCODING 77
SWIDTH 505 0
DWIDTH 10 0
BBX 10 20 0 -3
BITMAP
0000
0000
0000
c0c0
4080
4180
6180
6280
6280
5480
5480
5480
4880
4880
4880
4080
e3c0
0000
0000
0000
ENDCHAR
STARTCHAR N
ENCODING 78
SWIDTH 505 0
DWIDTH 10 0
BBX 10 20 0 -3
BITMAP
0000
0000
0000
c1c0
6080
6080
5080
5080
4880
4880
4480
4480
4280
4280
4180
4180
e080
0000
0000
0000
ENDCHAR
STARTCHAR O
ENCODING 79
SWIDTH 505 0
DWIDTH 10 0
BBX 10 20 0 -3
BITMAP
0000
0000
0000
3e00
4100
4100
8080
8080
8080
8080
8080
8080
8080
8080
4100
4100
3e00
0000
0000
0000
ENDCHAR
STARTCHAR P
ENCODING 80
SWIDTH 505 0
DWIDTH 10 0
BBX 10 20 0 -3
BITMAP
0000
0000
0000
fe00
4100
4080
4080
4080
4080
4100
7e00
4000
4000
4000
4000
4000
f000
0000
0000
0000
ENDCHAR
STARTCHAR Q
ENCODING 81
SWIDTH 505 0
DWIDTH 10 0
BBX 10 20 0 -3
BITMAP
0000
0000
0000
3e00
4100
4100
8080
8080
8080
8080
8080
8080
8080
9880
6500
4300
3e00
0240
0180
0000
ENDCHAR
STARTCHAR R
ENCODING 82
SWIDTH 505 0
DWIDTH 10 0
BBX 10 20 0 -3
BITMAP
0000
0000
0000
fe00
4100
4080
4080
4080
4100
7e00
4800
4400
4200
4200
4100
4080
f3c0
0000
0000
0000
ENDCHAR
STARTCHAR S
ENCODING 83
SWIDTH 505 0
DWIDTH 10 0
BBX 10 20 0 -3
BITMAP
0000
0000
0000
1d00
2300
4080
4080
4000
3000
0c00
0300
0080
4080
4080
6080
5100
4e00
0000
0000
0000
ENDCHAR
STARTCHAR T
ENCODING 84
SWIDTH 505 0
DWIDTH 10 0
BBX 10 20 0 -3
BITMAP
0000
0000
0000
ff80
8880
8880
8880
0800
0800
0800
0800
0800
0800
0800
0800
0800
3e00
0000
0000
0000
ENDCHAR
STARTCHAR U
ENCODING 85
SWIDTH 505 0
DWIDTH 10 0
BBX 10 20 0 -3
BITMAP
0000
0000
0000
f1c0
4080
4080
4080
4080
4080
4080
4080
4080
4080
4080
4080
2100
1e00
0000
0000
0000
ENDCHAR
STARTCHAR V
ENCODING 86
SWIDTH 505 0
DWIDTH 10 0
BBX 10 20 0 -3
BITMAP
0000
0000
0000
f1c0
4080
4080
6100
2100
2100
3100
1200
1a00
0a00
0c00
0c00
0400
0400
0000
0000
0000
ENDCHAR
STARTCHAR W
ENCODING 87
SWIDTH 505 0
DWIDTH 10 0
BBX 10 20 0 -3
BITMAP
0000
0000
0000
e380
4100
4900
4900
4900
4900
5d00
5500
5500
7700
2200
2200
2200
2200
0000
0000
0000
ENDCHAR
STARTCHAR X
ENCODING 88
SWIDTH 505 0
DWIDTH 10 0
BBX 10 20 0 -3
BITMAP
0000
0000
0000
f3c0
4080
2100
2200
1200
1c00
0800
0c00
1400
1200
2100
2100
4080
f3c0
0000
0000
0000
ENDCHAR
STARTCHAR Y
ENCODING 89
SWIDTH 505 0
DWIDTH 10 0
BBX 10 20 0 -3
BITMAP
0000
0000
0000
f380
4100
4100
2200
2200
1400
1400
0800
0800
0800
0800
0800
0800
3e00
0000
0000
0000
ENDCHAR
STARTCHAR Z
ENCODING 90
SWIDTH 505 0
DWIDTH 10 0
BBX 10 20 0 -3
BITMAP
0000
0000
0000
7f80
4100
4200
4200
0400
0400
0800
0800
1000
1000
2080
2080
4080
ff80
0000
0000
0000
ENDCHAR
STARTCHAR [
ENCODING 91
SWIDTH 505 0
DWIDTH 10 0
BBX 10 20 0 -3
BITMAP
0000
0000
1f00
1000
1000
1000
1000
1000
1000
1000
1000
1000
1000
1000
1000
1000
1000
1f00
0000
0000
ENDCHAR
STARTCHAR yen
ENCODING 92
SWIDTH 505 0
DWIDTH 10 0
BBX 10 20 0 -3
BITMAP
0000
0000
0000
f380
4100
4100
2200
2200
1400
7f00
0800
0800
7f00
0800
0800
0800
3e00
0000
0000
0000
ENDCHAR
STARTCHAR ]
ENCODING 93
SWIDTH 505 0
DWIDTH 10 0
BBX 10 20 0 -3
BITMAP
0000
0000
3e00
0200
0200
0200
0200
0200
0200
0200
0200
0200
0200
0200
0200
0200
0200
3e00
0000
0000
ENDCHAR
STARTCHAR ^
ENCODING 94
SWIDTH 505 0
DWIDTH 10 0
BBX 10 20 0 -3
BITMAP
0000
0000
0800
1400
2200
4100
0000
0000
0000
0000
0000
0000
0000
0000
0000
0000
0000
0000
0000
0000
ENDCHAR
STARTCHAR _
ENCODING 95
SWIDTH 505 0
DWIDTH 10 0
BBX 10 20 0 -3
BITMAP
0000
0000
0000
0000
0000
0000
0000
0000
0000
0000
0000
0000
0000
0000
0000
0000
0000
ff80
0000
0000
ENDCHAR
STARTCHAR `
ENCODING 96
SWIDTH 505 0
DWIDTH 10 0
BBX 10 20 0 -3
BITMAP
0000
0000
1800
0c00
0200
0000
0000
0000
0000
0000
0000
0000
0000
0000
0000
0000
0000
0000
0000
0000
ENDCHAR
STARTCHAR a
ENCODING 97
SWIDTH 505 0
DWIDTH 10 0
BBX 10 20 0 -3
BITMAP
0000
0000
0000
0000
0000
0000
0000
1f00
2080
6080
0080
0f80
3080
4080
4080
4180
3ec0
0000
0000
0000
ENDCHAR
STARTCHAR b
ENCODING 98
SWIDTH 505 0
DWIDTH 10 0
BBX 10 20 0 -3
BITMAP
0000
0000
0000
e000
2000
2000
2000
2e00
3100
2080
2080
2080
2080
2080
2080
3100
2e00
0000
0000
0000
ENDCHAR
STARTCHAR c
ENCODING 99
SWIDTH 505 0
DWIDTH 10 0
BBX 10 20 0 -3
BITMAP
0000
0000
0000
0000
0000
0000
0000
1e00
2100
4180
4000
4000
4000
4000
4080
2100
1e00
0000
0000
0000
ENDCHAR
STARTCHAR d
ENCODING 100
SWIDTH 505 0
DWIDTH 10 0
BBX 10 20 0 -3
BITMAP
0000
0000
0000
0700
0100
0100
0100
1d00
2300
4100
4100
4100
4100
4100
4100
2300
1d80
0000
0000
0000
ENDCHAR
STARTCHAR e
ENCODING 101
SWIDTH 505 0
DWIDTH 10 0
BBX 10 20 0 -3
BITMAP
0000
0000
0000
0000
0000
0000
0000
1e00
2100
4080
4080
7f80
4000
4000
4080
2100
1e00
0000
0000
0000
ENDCHAR
STARTCHAR f
ENCODING 102
SWIDTH 505 0
DWIDTH 10 0
BBX 10 20 0 -3
BITMAP
0000
0000
0000
0f00
1080
1180
1000
7e00
1000
1000
1000
1000
1000
1000
1000
1000
7c00
0000
0000
0000
ENDCHAR
STARTCHAR g
ENCODING 103
SWIDTH 505 0
DWIDTH 10 0
BBX 10 20 0 -3
BITMAP
0000
0000
0000
0000
0000
0000
0080
3d80
4200
4200
4200
4200
3c00
4000
2000
5f00
8080
8080
8080
7f00
ENDCHAR
STARTCHAR h
ENCODING 104
SWIDTH 505 0
DWIDTH 10 0
BBX 10 20 0 -3
BITMAP
0000
0000
0000
e000
2000
2000
2000
2f00
3080
2080
2080
2080
2080
2080
2080
2080
f3c0
0000
0000
0000
ENDCHAR
STARTCHAR i
ENCODING 105
SWIDTH 505 0
DWIDTH 10 0
BBX 10 20 0 -3
BITMAP
0000
0000
0000
0c00
0c00
0000
0000
3c00
0400
0400
0400
0400
0400
0400
0400
0400
7f80
0000
0000
0000
ENDCHAR
STARTCHAR j
ENCODING 106
SWIDTH 505 0
DWIDTH 10 0
BBX 10 20 0 -3
BITMAP
0000
0000
0000
0180
0180
0000
0000
0f80
0080
0080
0080
0080
0080
0080
0080
0080
0080
6080
4100
3e00
ENDCHAR
STARTCHAR k
ENCODING 107
SWIDTH 505 0
DWIDTH 10 0
BBX 10 20 0 -3
BITMAP
0000
0000
0000
e000
2000
2000
2000
2780
2200
2400
2800
3000
2800
2400
2200
2100
f780
0000
0000
0000
ENDCHAR
STARTCHAR l
ENCODING 108
SWIDTH 505 0
DWIDTH 10 0
BBX 10 20 0 -3
BITMAP
0000
0000
0000
3c00
0400
0400
0400
0400
0400
0400
0400
0400
0400
0400
0400
0400
7f80
0000
0000
0000
ENDCHAR
STARTCHAR m
ENCODING 109
SWIDTH 505 0
DWIDTH 10 0
BBX 10 20 0 -3
BITMAP
0000
0000
0000
0000
0000
0000
0000
db00
2480
2480
2480
2480
2480
2480
2480
2480
64c0
0000
0000
0000
ENDCHAR
STARTCHAR n
ENCODING 110
SWIDTH 505 0
DWIDTH 10 0
BBX 10 20 0 -3
BITMAP
0000
0000
0000
0000
0000
0000
0000
ef00
3080
2080
2080
2080
2080
2080
2080
2080
71c0
0000
0000
0000
ENDCHAR
STARTCHAR o
ENCODING 111
SWIDTH 505 0
DWIDTH 10 0
BBX 10 20 0 -3
BITMAP
0000
0000
0000
0000
0000
0000
0000
1e00
2100
4080
4080
4080
4080
4080
4080
2100
1e00
0000
0000
0000
ENDCHAR
STARTCHAR p
ENCODING 112
SWIDTH 505 0
DWIDTH 10 0
BBX 10 20 0 -3
BITMAP
0000
0000
0000
0000
0000
0000
0000
ee00
3100
2080
2080
2080
2080
2080
3100
2e00
2000
2000
2000
7000
ENDCHAR
STARTCHAR q
ENCODING 113
SWIDTH 505 0
DWIDTH 10 0
BBX 10 20 0 -3
BITMAP
0000
0000
0000
0000
0000
0000
0000
1d00
2300
4100
4100
4100
4100
4100
2300
1d00
0100
0100
0100
0380
ENDCHAR
STARTCHAR r
ENCODING 114
SWIDTH 505 0
DWIDTH 10 0
BBX 10 20 0 -3
BITMAP
0000
0000
0000
0000
0000
0000
0000
7700
1880
1180
1000
1000
1000
1000
1000
1000
7c00
0000
0000
0000
ENDCHAR
STARTCHAR s
ENCODING 115
SWIDTH 505 0
DWIDTH 10 0
BBX 10 20 0 -3
BITMAP
0000
0000
0000
0000
0000
0000
0000
3e80
4180
4080
6000
1c00
0300
4080
4080
6080
5f00
0000
0000
0000
ENDCHAR
STARTCHAR t
ENCODING 116
SWIDTH 505 0
DWIDTH 10 0
BBX 10 20 0 -3
BITMAP
0000
0000
0000
0800
0800
0800
0800
7f00
0800
0800
0800
0800
0800
0800
0880
0880
0700
0000
0000
0000
ENDCHAR
STARTCHAR u
ENCODING 117
SWIDTH 505 0
DWIDTH 10 0
BBX 10 20 0 -3
BITMAP
0000
0000
0000
0000
0000
0000
0000
e380
2080
2080
2080
2080
2080
2080
2080
2180
1ec0
0000
0000
0000
ENDCHAR
STARTCHAR v
ENCODING 118
SWIDTH 505 0
DWIDTH 10 0
BBX 10 20 0 -3
BITMAP
0000
0000
0000
0000
0000
0000
0000
f3c0
2080
2080
1100
1100
1100
0a00
0e00
0400
0400
0000
0000
0000
ENDCHAR
STARTCHAR w
ENCODING 119
SWIDTH 505 0
DWIDTH 10 0
BBX 10 20 0 -3
BITMAP
0000
0000
0000
0000
0000
0000
0000
e780
4100
4900
4900
4900
5d00
5500
5500
2200
2200
0000
0000
0000
ENDCHAR
STARTCHAR x
ENCODING 120
SWIDTH 505 0
DWIDTH 10 0
BBX 10 20 0 -3
BITMAP
0000
0000
0000
0000
0000
0000
0000
f780
2200
2200
1400
0800
0800
1400
2200
2200
f780
0000
0000
0000
ENDCHAR
STARTCHAR y
ENCODING 121
SWIDTH 505 0
DWIDTH 10 0
BBX 10 20 0 -3
BITMAP
0000
0000
0000
0000
0000
0000
0000
f1c0
2080
2080
2100
1100
1200
0a00
0a00
0400
0400
c800
8800
7000
ENDCHAR
STARTCHAR z
ENCODING 122
SWIDTH 505 0
DWIDTH 10 0
BBX 10 20 0 -3
BITMAP
0000
0000
0000
0000
0000
0000
0000
7f80
4100
4200
0200
0400
0800
0800
1080
2080
7f80
0000
0000
0000
ENDCHAR
STARTCHAR {
ENCODING 123
SWIDTH 505 0
DWIDTH 10 0
BBX 10 20 0 -3
BITMAP
0200
0400
0400
0800
0800
0800
0800
0800
0800
3000
0800
0800
0800
0800
0800
0800
0400
0400
0200
0000
ENDCHAR
STARTCHAR bar
ENCODING 124
SWIDTH 505 0
DWIDTH 10 0
BBX 10 20 0 -3
BITMAP
0800
0800
0800
0800
0800
0800
0800
0800
0800
0800
0800
0800
0800
0800
0800
0800
0800
0800
0800
0800
ENDCHAR
STARTCHAR }
ENCODING 125
SWIDTH 505 0
DWIDTH 10 0
BBX 10 20 0 -3
BITMAP
1000
0800
0800
0400
0400
0400
0400
0400
0400
0300
0400
0400
0400
0400
0400
0400
0800
0800
1000
0000
ENDCHAR
STARTCHAR overline
ENCODING 126
SWIDTH 505 0
DWIDTH 10 0
BBX 10 20 0 -3
BITMAP
ffc0
0000
0000
0000
0000
0000
0000
0000
0000
0000
0000
0000
0000
0000
0000
0000
0000
0000
0000
0000
ENDCHAR
STARTCHAR C240
ENCODING 160
SWIDTH 505 0
DWIDTH 10 0
BBX 10 20 0 -3
BITMAP
0000
0000
0000
0000
0000
0000
0000
0000
0000
0000
0000
0000
0000
0000
0000
0000
0000
0000
0000
0000
ENDCHAR
STARTCHAR kuten
ENCODING 161
SWIDTH 505 0
DWIDTH 10 0
BBX 10 20 0 -3
BITMAP
0000
0000
0000
0000
0000
0000
0000
0000
0000
0000
0000
0000
0000
3800
4400
4400
4400
3800
0000
0000
ENDCHAR
STARTCHAR KagiOpen
ENCODING 162
SWIDTH 505 0
DWIDTH 10 0
BBX 10 20 0 -3
BITMAP
0000
1f80
1000
1000
1000
1000
1000
1000
1000
1000
1000
1000
1000
1000
1000
0000
0000
0000
0000
0000
ENDCHAR
STARTCHAR KagiClose
ENCODING 163
SWIDTH 505 0
DWIDTH 10 0
BBX 10 20 0 -3
BITMAP
0000
0000
0000
0000
0000
0200
0200
0200
0200
0200
0200
0200
0200
0200
0200
0200
0200
0200
7e00
0000
ENDCHAR
STARTCHAR kuten
ENCODING 164
SWIDTH 505 0
DWIDTH 10 0
BBX 10 20 0 -3
BITMAP
0000
0000
0000
0000
0000
0000
0000
0000
0000
0000
0000
0000
0000
4000
2000
1000
1000
0000
0000
0000
ENDCHAR
STARTCHAR nakaguro
ENCODING 165
SWIDTH 505 0
DWIDTH 10 0
BBX 10 20 0 -3
BITMAP
0000
0000
0000
0000
0000
0000
0000
0000
1c00
1c00
1c00
0000
0000
0000
0000
0000
0000
0000
0000
0000
ENDCHAR
STARTCHAR KanaWO
ENCODING 166
SWIDTH 505 0
DWIDTH 10 0
BBX 10 20 0 -3
BITMAP
0000
0000
0100
4780
3900
0100
0100
4f00
3200
0200
0200
0600
0400
0400
0800
0800
1000
2000
0000
0000
ENDCHAR
STARTCHAR KanaSmallA
ENCODING 167
SWIDTH 505 0
DWIDTH 10 0
BBX 10 20 0 -3
BITMAP
0000
0000
0000
0000
0000
0000
0100
4f80
3900
0200
0200
1400
0800
0800
1800
1000
1000
2000
0000
0000
ENDCHAR
STARTCHAR KanaSmallI
ENCODING 168
SWIDTH 505 0
DWIDTH 10 0
BBX 10 20 0 -3
BITMAP
0000
0000
0000
0000
0000
0000
0400
0600
0c00
0800
1c00
2800
4800
0800
0800
0800
0800
0800
0000
0000
ENDCHAR
STARTCHAR KanaSmallU
ENCODING 169
SWIDTH 505 0
DWIDTH 10 0
BBX 10 20 0 -3
BITMAP
0000
0000
0000
0000
0000
0000
1000
0800
0900
4f80
3100
2100
2300
0200
0200
0400
0400
0800
0000
0000
ENDCHAR
STARTCHAR KanaSmallE
ENCODING 170
SWIDTH 505 0
DWIDTH 10 0
BBX 10 20 0 -3
BITMAP
0000
0000
0000
0000
0000
0000
0000
0400
3e00
0800
0800
0800
0800
0800
0a00
7f00
2000
0000
0000
0000
ENDCHAR
STARTCHAR KanaSmallO
ENCODING 171
SWIDTH 505 0
DWIDTH 10 0
BBX 10 20 0 -3
BITMAP
0000
0000
0000
0000
0000
0000
0800
0400
0500
7f80
2400
0c00
0c00
1400
2400
4400
1c00
0800
0000
0000
ENDCHAR
STARTCHAR KanaSmallYA
ENCODING 172
SWIDTH 505 0
DWIDTH 10 0
BBX 10 20 0 -3
BITMAP
0000
0000
0000
0000
0000
0000
0000
4000
2100
2780
1900
f200
5200
1000
0800
0800
0800
0800
0000
0000
ENDCHAR
STARTCHAR KanaSmallYU
ENCODING 173
SWIDTH 505 0
DWIDTH 10 0
BBX 10 20 0 -3
BITMAP
0000
0000
0000
0000
0000
0000
0000
0000
0200
3f00
1200
0200
0600
0400
0500
7f80
2000
0000
0000
0000
ENDCHAR
STARTCHAR KanaSmallYO
ENCODING 174
SWIDTH 505 0
DWIDTH 10 0
BBX 10 20 0 -3
BITMAP
0000
0000
0000
0000
0000
0000
0000
0000
0200
7f00
2200
0200
7e00
2200
0200
7e00
2200
0000
0000
0000
ENDCHAR
STARTCHAR KanaSmallTU
ENCODING 175
SWIDTH 505 0
DWIDTH 10 0
BBX 10 20 0 -3
BITMAP
0000
0000
0000
0000
0000
0000
0000
0000
1100
4980
2900
2300
0200
0200
0600
0400
0800
1000
0000
0000
ENDCHAR
STARTCHAR Prolonged
ENCODING 176
SWIDTH 505 0
DWIDTH 10 0
BBX 10 20 0 -3
BITMAP
0000
0000
0000
0000
0000
0000
0000
0000
0100
4780
3800
0000
0000
0000
0000
0000
0000
0000
0000
0000
ENDCHAR
STARTCHAR KanaA
ENCODING 177
SWIDTH 505 0
DWIDTH 10 0
BBX 10 20 0 -3
BITMAP
0000
0000
0000
0080
87c0
7880
0100
1100
0a00
0c00
0800
0800
0800
0800
0800
1000
1000
2000
0000
0000
ENDCHAR
STARTCHAR KanaI
ENCODING 178
SWIDTH 505 0
DWIDTH 10 0
BBX 10 20 0 -3
BITMAP
0000
0000
0100
0180
0300
0600
0400
0800
1c00
2400
c400
0400
0400
0400
0400
0400
0400
0400
0000
0000
ENDCHAR
STARTCHAR KanaU
ENCODING 179
SWIDTH 505 0
DWIDTH 10 0
BBX 10 20 0 -3
BITMAP
0000
0000
0c00
0800
0880
4fc0
f880
4080
4080
6180
4100
0100
0300
0200
0600
0400
0800
1000
0000
0000
ENDCHAR
STARTCHAR KanaE
ENCODING 180
SWIDTH 505 0
DWIDTH 10 0
BBX 10 20 0 -3
BITMAP
0000
0000
0000
0000
0200
7f00
2800
0800
0800
0800
0800
0800
0800
0800
0900
ff80
4000
0000
0000
0000
ENDCHAR
STARTCHAR KanaO
ENCODING 181
SWIDTH 505 0
DWIDTH 10 0
BBX 10 20 0 -3
BITMAP
0000
0000
0400
0600
0200
0280
03c0
fe00
0600
0e00
0a00
1200
2200
4200
8200
0200
1e00
0400
0000
0000
ENDCHAR
STARTCHAR KanaKA
ENCODING 182
SWIDTH 505 0
DWIDTH 10 0
BBX 10 20 0 -3
BITMAP
0000
0000
1000
1800
0800
0900
1f80
f900
1100
1100
1100
3100
2300
2200
6200
4600
9e00
8400
0000
0000
ENDCHAR
STARTCHAR KanaKI
ENCODING 183
SWIDTH 505 0
DWIDTH 10 0
BBX 10 20 0 -3
BITMAP
0000
0000
1000
0800
0800
0a00
0f00
f800
4800
0800
0900
0f80
fc00
4400
0400
0400
0400
0400
0000
0000
ENDCHAR
STARTCHAR KanaKU
ENCODING 184
SWIDTH 505 0
DWIDTH 10 0
BBX 10 20 0 -3
BITMAP
0000
0000
2000
3000
1100
1f80
3100
2100
2100
4300
8200
0600
0400
0400
0800
1000
2000
c000
0000
0000
ENDCHAR
STARTCHAR KanaKE
ENCODING 185
SWIDTH 505 0
DWIDTH 10 0
BBX 10 20 0 -3
BITMAP
0000
0000
4000
2000
2100
2780
7c00
4400
4400
8400
0c00
0800
0800
0800
1000
1000
2000
4000
0000
0000
ENDCHAR
STARTCHAR KanaKO
ENCODING 186
SWIDTH 505 0
DWIDTH 10 0
BBX 10 20 0 -3
BITMAP
0000
0000
0000
0000
0700
ff80
4100
0100
0100
0100
0100
0100
0100
0300
ff00
4200
0000
0000
0000
0000
ENDCHAR
STARTCHAR KanaSA
ENCODING 187
SWIDTH 505 0
DWIDTH 10 0
BBX 10 20 0 -3
BITMAP
0000
0000
2600
3300
1200
1200
1fc0
f200
1200
1200
1200
0200
0200
0600
0400
0400
0800
1000
0000
0000
ENDCHAR
STARTCHAR KanaSI
ENCODING 188
SWIDTH 505 0
DWIDTH 10 0
BBX 10 20 0 -3
BITMAP
0000
0000
2000
1080
1080
1080
0100
4100
2100
2200
2200
0400
0400
0c00
8800
7800
3000
2000
0000
0000
ENDCHAR
STARTCHAR KanaSU
ENCODING 189
SWIDTH 505 0
DWIDTH 10 0
BBX 10 20 0 -3
BITMAP
0000
0000
0100
4780
3980
0100
0100
0300
0200
0600
0400
0a00
0a00
1100
1100
2180
4180
8100
0000
0000
ENDCHAR
STARTCHAR KanaSE
ENCODING 190
SWIDTH 505 0
DWIDTH 10 0
BBX 10 20 0 -3
BITMAP
0000
0000
2000
1000
1800
1000
1080
93c0
7c80
5080
1100
1100
1200
1000
1000
1980
0f80
0000
0000
0000
ENDCHAR
STARTCHAR KanaSO
ENCODING 191
SWIDTH 505 0
DWIDTH 10 0
BBX 10 20 0 -3
BITMAP
0000
0000
0100
8180
4100
4100
2100
2300
2200
0200
0200
0600
0400
0400
0800
0800
1000
2000
0000
0000
ENDCHAR
STARTCHAR KanaTA
ENCODING 192
SWIDTH 505 0
DWIDTH 10 0
BBX 10 20 0 -3
BITMAP
0000
0000
2000
1000
1100
1f80
3100
2100
2100
5300
8a00
0a00
0600
0400
0800
1000
2000
c000
0000
0000
ENDCHAR
STARTCHAR KanaTI
ENCODING 193
SWIDTH 505 0
DWIDTH 10 0
BBX 10 20 0 -3
BITMAP
0000
0000
0400
0700
1c00
6800
0c00
0900
0f80
f800
0800
0800
1800
1000
1000
2000
2000
4000
0000
0000
ENDCHAR
STARTCHAR KanaTU
ENCODING 194
SWIDTH 505 0
DWIDTH 10 0
BBX 10 20 0 -3
BITMAP
0000
0000
0000
1100
8980
4900
4900
4100
0300
0200
0200
0600
0400
0400
0800
0800
1000
2000
0000
0000
ENDCHAR
STARTCHAR KanaTE
ENCODING 195
SWIDTH 505 0
DWIDTH 10 0
BBX 10 20 0 -3
BITMAP
0000
0000
0000
0200
4f00
3800
0000
0100
8f80
7800
0800
0800
1800
1000
1000
2000
2000
4000
0000
0000
ENDCHAR
STARTCHAR KanaTO
ENCODING 196
SWIDTH 505 0
DWIDTH 10 0
BBX 10 20 0 -3
BITMAP
0000
0000
2000
3000
1000
1000
1000
1000
1800
1400
1600
1200
1200
1000
1000
1000
3000
2000
0000
0000
ENDCHAR
STARTCHAR KanaNA
ENCODING 197
SWIDTH 505 0
DWIDTH 10 0
BBX 10 20 0 -3
BITMAP
0000
0000
1000
0800
0c00
0800
0900
8f80
7800
0800
0800
0800
1800
1000
1000
2000
2000
4000
0000
0000
ENDCHAR
STARTCHAR KanaNI
ENCODING 198
SWIDTH 505 0
DWIDTH 10 0
BBX 10 20 0 -3
BITMAP
0000
0000
0000
0000
0200
4f00
3000
0000
0000
0000
0000
0000
0000
0f00
7180
8000
0000
0000
0000
0000
ENDCHAR
STARTCHAR KanaNU
ENCODING 199
SWIDTH 505 0
DWIDTH 10 0
BBX 10 20 0 -3
BITMAP
0000
0000
0000
0100
4f80
3100
0300
0200
2600
1400
0c00
0800
1c00
1600
2200
2300
4100
8100
0000
0000
ENDCHAR
STARTCHAR KanaNE
ENCODING 200
SWIDTH 505 0
DWIDTH 10 0
BBX 10 20 0 -3
BITMAP
0000
0000
1800
0800
0900
4f80
3100
0300
0600
0400
0c00
1a00
2900
c980
0880
0880
0800
0800
0000
0000
ENDCHAR
STARTCHAR KanaNO
ENCODING 201
SWIDTH 505 0
DWIDTH 10 0
BBX 10 20 0 -3
BITMAP
0000
0000
0000
0300
0180
0100
0100
0200
0200
0200
0400
0400
0800
0800
1000
1000
2000
4000
0000
0000
ENDCHAR
STARTCHAR KanaHA
ENCODING 202
SWIDTH 505 0
DWIDTH 10 0
BBX 10 20 0 -3
BITMAP
0000
0000
0000
2200
1200
1900
1100
1100
1080
2080
2080
2080
40c0
40c0
4080
8080
0000
0000
0000
0000
ENDCHAR
STARTCHAR KanaHI
ENCODING 203
SWIDTH 505 0
DWIDTH 10 0
BBX 10 20 0 -3
BITMAP
0000
0000
4000
2000
3000
2000
2100
2380
2600
3800
2000
2000
2000
2000
2000
3180
1f80
0000
0000
0000
ENDCHAR
STARTCHAR KanaHU
ENCODING 204
SWIDTH 505 0
DWIDTH 10 0
BBX 10 20 0 -3
BITMAP
0000
0000
0000
0100
8780
7980
0100
0100
0300
0200
0600
0400
0c00
0800
1000
1000
2000
4000
0000
0000
ENDCHAR
STARTCHAR KanaHE
ENCODING 205
SWIDTH 505 0
DWIDTH 10 0
BBX 10 20 0 -3
BITMAP
0000
0000
0000
0000
0000
1000
1000
2800
2800
2400
4400
c200
8200
0100
0180
0080
0000
0000
0000
0000
ENDCHAR
STARTCHAR KanaHO
ENCODING 206
SWIDTH 505 0
DWIDTH 10 0
BBX 10 20 0 -3
BITMAP
0000
0000
1800
0c00
0900
8f80
7800
0800
0a00
4900
6900
4980
4880
8880
8880
0800
0800
0000
0000
0000
ENDCHAR
STARTCHAR KanaMA
ENCODING 207
SWIDTH 505 0
DWIDTH 10 0
BBX 10 20 0 -3
BITMAP
0000
0000
0000
0100
0780
9980
6100
0300
0200
0400
0400
6800
1000
0c00
0400
0400
0000
0000
0000
0000
ENDCHAR
STARTCHAR KanaMI
ENCODING 208
SWIDTH 505 0
DWIDTH 10 0
BBX 10 20 0 -3
BITMAP
0000
0000
1800
0400
0200
0100
0000
3000
0800
0400
0200
0000
c000
3000
0800
0600
0300
0100
0000
0000
ENDCHAR
STARTCHAR KanaMU
ENCODING 209
SWIDTH 505 0
DWIDTH 10 0
BBX 10 20 0 -3
BITMAP
0000
0000
1000
0800
0c00
0800
0800
0800
1000
1000
1200
1100
3100
2100
2780
7980
c180
4100
0000
0000
ENDCHAR
STARTCHAR KanaME
ENCODING 210
SWIDTH 505 0
DWIDTH 10 0
BBX 10 20 0 -3
BITMAP
0000
0000
0300
0180
0100
0100
0200
3200
0a00
0400
0600
0500
0980
0880
1080
1000
2000
4000
0000
0000
ENDCHAR
STARTCHAR KanaMO
ENCODING 211
SWIDTH 505 0
DWIDTH 10 0
BBX 10 20 0 -3
BITMAP
0000
0000
0200
0f00
7800
1000
1000
1000
1100
1f80
f000
5000
1000
1000
1000
1980
0f80
0000
0000
0000
ENDCHAR
STARTCHAR KanaYA
ENCODING 212
SWIDTH 505 0
DWIDTH 10 0
BBX 10 20 0 -3
BITMAP
0000
0000
6000
3000
1100
1380
1d00
f100
5100
1200
1200
1000
0800
0800
0800
0800
0800
0800
0000
0000
ENDCHAR
STARTCHAR KanaYU
ENCODING 213
SWIDTH 505 0
DWIDTH 10 0
BBX 10 20 0 -3
BITMAP
0000
0000
0000
0000
0200
4f00
3200
0200
0200
0600
0400
0400
0400
0400
ff80
4080
0000
0000
0000
0000
ENDCHAR
STARTCHAR KanaYO
ENCODING 214
SWIDTH 505 0
DWIDTH 10 0
BBX 10 20 0 -3
BITMAP
0000
0000
0000
0000
0600
ff80
4100
0100
0100
7f00
2100
0100
0100
0300
ff00
4200
0000
0000
0000
0000
ENDCHAR
STARTCHAR KanaRA
ENCODING 215
SWIDTH 505 0
DWIDTH 10 0
BBX 10 20 0 -3
BITMAP
0000
0000
0200
4700
3800
0000
0100
8780
7980
0100
0300
0200
0600
0400
0c00
0800
1000
6000
0000
0000
ENDCHAR
STARTCHAR KanaRI
ENCODING 216
SWIDTH 505 0
DWIDTH 10 0
BBX 10 20 0 -3
BITMAP
0000
0000
0200
4100
3180
2100
2100
2100
2100
2100
2100
0100
0300
0200
0200
0400
0400
1800
0000
0000
ENDCHAR
STARTCHAR KanaRU
ENCODING 217
SWIDTH 505 0
DWIDTH 10 0
BBX 10 20 0 -3
BITMAP
0000
0000
0400
4600
2400
3400
2400
2400
2400
2480
2480
2480
2480
4500
4500
4600
4600
8400
0000
0000
ENDCHAR
STARTCHAR KanaRE
ENCODING 218
SWIDTH 505 0
DWIDTH 10 0
BBX 10 20 0 -3
BITMAP
0000
0000
4000
3000
2000
2000
2000
2000
2100
2100
2100
2200
2200
2400
2c00
3800
3000
2000
0000
0000
ENDCHAR
STARTCHAR KanaRO
ENCODING 219
SWIDTH 505 0
DWIDTH 10 0
BBX 10 20 0 -3
BITMAP
0000
0000
0000
0000
0700
ff80
4100
4100
4100
4100
4100
4100
4100
4300
7f00
4200
0000
0000
0000
0000
ENDCHAR
STARTCHAR KanaWA
ENCODING 220
SWIDTH 505 0
DWIDTH 10 0
BBX 10 20 0 -3
BITMAP
0000
0000
8100
6780
5980
4100
4100
4300
4200
0200
0200
0600
0400
0c00
0800
1800
1000
2000
0000
0000
ENDCHAR
STARTCHAR KanaN
ENCODING 221
SWIDTH 505 0
DWIDTH 10 0
BBX 10 20 0 -3
BITMAP
0000
0000
0000
8080
4080
6080
2100
2100
0100
0200
0200
0400
0400
0c00
8800
7800
3000
2000
0000
0000
ENDCHAR
STARTCHAR dakuten
ENCODING 222
SWIDTH 505 0
DWIDTH 10 0
BBX 10 20 0 -3
BITMAP
0000
0000
2000
9000
4800
2800
2000
0000
0000
0000
0000
0000
0000
0000
0000
0000
0000
0000
0000
0000
ENDCHAR
STARTCHAR handakuten
ENCODING 223
SWIDTH 505 0
DWIDTH 10 0
BBX 10 20 0 -3
BITMAP
0000
0000
3800
4400
4400
4400
3800
0000
0000
0000
0000
0000
0000
0000
0000
0000
0000
0000
0000
0000
ENDCHAR
ENDFONT
